<svg width="202" height="53" viewBox="0 0 202 53" fill="none" xmlns="http://www.w3.org/2000/svg">
<path d="M40.9815 44V17.8182H51.7969C53.7571 17.8182 55.4489 18.1719 56.8722 18.8793C58.304 19.5781 59.4077 20.5838 60.1832 21.8963C60.9588 23.2003 61.3466 24.7472 61.3466 26.5369C61.3466 28.3523 60.9503 29.8949 60.1577 31.1648C59.3651 32.4261 58.2401 33.3892 56.7827 34.054C55.3253 34.7102 53.5994 35.0384 51.6051 35.0384H44.7656V30.0526H50.429C51.3835 30.0526 52.1804 29.929 52.8196 29.6818C53.4673 29.4261 53.9574 29.0426 54.2898 28.5312C54.6222 28.0114 54.7884 27.3466 54.7884 26.5369C54.7884 25.7273 54.6222 25.0582 54.2898 24.5298C53.9574 23.9929 53.4673 23.5923 52.8196 23.3281C52.1719 23.0554 51.375 22.919 50.429 22.919H47.3097V44H40.9815ZM55.7216 32.0341L62.2415 44H55.3381L48.946 32.0341H55.7216ZM73.6097 44.3707C71.5558 44.3707 69.783 43.9659 68.2915 43.1562C66.8086 42.3381 65.6665 41.1747 64.8654 39.6662C64.0728 38.1491 63.6765 36.3466 63.6765 34.2585C63.6765 32.2301 64.0771 30.4574 64.8782 28.9403C65.6793 27.4148 66.8086 26.2301 68.266 25.3864C69.7234 24.5341 71.4407 24.108 73.418 24.108C74.8157 24.108 76.0941 24.3253 77.2532 24.7599C78.4123 25.1946 79.4137 25.8381 80.2575 26.6903C81.1012 27.5426 81.7575 28.5952 82.2262 29.848C82.695 31.0923 82.9293 32.5199 82.9293 34.1307V35.6903H65.8626V32.0597H77.1126C77.104 31.3949 76.9464 30.8026 76.6396 30.2827C76.3327 29.7628 75.9109 29.358 75.3739 29.0682C74.8455 28.7699 74.2362 28.6207 73.5458 28.6207C72.8469 28.6207 72.2205 28.7784 71.6665 29.0938C71.1126 29.4006 70.6737 29.8224 70.3498 30.3594C70.0259 30.8878 69.8555 31.4886 69.8384 32.1619V35.8565C69.8384 36.6577 69.9961 37.3608 70.3114 37.9659C70.6268 38.5625 71.0742 39.027 71.6538 39.3594C72.2333 39.6918 72.9237 39.858 73.7248 39.858C74.2788 39.858 74.7816 39.7812 75.2333 39.6278C75.685 39.4744 76.0728 39.2486 76.3967 38.9503C76.7205 38.652 76.9634 38.2855 77.1254 37.8509L82.8654 38.017C82.6268 39.304 82.1026 40.4247 81.293 41.3793C80.4918 42.3253 79.4393 43.0625 78.1353 43.5909C76.8313 44.1108 75.3228 44.3707 73.6097 44.3707ZM95.3011 44.3707C93.2472 44.3707 91.4744 43.9659 89.983 43.1562C88.5 42.3381 87.358 41.1747 86.5568 39.6662C85.7642 38.1491 85.3679 36.3466 85.3679 34.2585C85.3679 32.2301 85.7685 30.4574 86.5696 28.9403C87.3707 27.4148 88.5 26.2301 89.9574 25.3864C91.4148 24.5341 93.1321 24.108 95.1094 24.108C96.5071 24.108 97.7855 24.3253 98.9446 24.7599C100.104 25.1946 101.105 25.8381 101.949 26.6903C102.793 27.5426 103.449 28.5952 103.918 29.848C104.386 31.0923 104.621 32.5199 104.621 34.1307V35.6903H87.554V32.0597H98.804C98.7955 31.3949 98.6378 30.8026 98.331 30.2827C98.0241 29.7628 97.6023 29.358 97.0653 29.0682C96.5369 28.7699 95.9276 28.6207 95.2372 28.6207C94.5384 28.6207 93.9119 28.7784 93.358 29.0938C92.804 29.4006 92.3651 29.8224 92.0412 30.3594C91.7173 30.8878 91.5469 31.4886 91.5298 32.1619V35.8565C91.5298 36.6577 91.6875 37.3608 92.0028 37.9659C92.3182 38.5625 92.7656 39.027 93.3452 39.3594C93.9247 39.6918 94.6151 39.858 95.4162 39.858C95.9702 39.858 96.473 39.7812 96.9247 39.6278C97.3764 39.4744 97.7642 39.2486 98.0881 38.9503C98.4119 38.652 98.6548 38.2855 98.8168 37.8509L104.557 38.017C104.318 39.304 103.794 40.4247 102.984 41.3793C102.183 42.3253 101.131 43.0625 99.8267 43.5909C98.5227 44.1108 97.0142 44.3707 95.3011 44.3707ZM126.335 24.3636L119.597 44H112.438L105.714 24.3636H112.298L115.915 37.8892H116.12L119.751 24.3636H126.335ZM133.74 44.3324C132.487 44.3324 131.375 44.1236 130.403 43.706C129.44 43.2798 128.677 42.6406 128.115 41.7884C127.561 40.9276 127.284 39.8494 127.284 38.554C127.284 37.4631 127.475 36.5426 127.859 35.7926C128.243 35.0426 128.771 34.4332 129.444 33.9645C130.118 33.4957 130.893 33.142 131.771 32.9034C132.649 32.6562 133.586 32.4901 134.583 32.4048C135.7 32.3026 136.599 32.196 137.281 32.0852C137.963 31.9659 138.457 31.7997 138.764 31.5866C139.079 31.3651 139.237 31.054 139.237 30.6534V30.5895C139.237 29.9332 139.011 29.4261 138.559 29.0682C138.108 28.7102 137.498 28.5312 136.731 28.5312C135.904 28.5312 135.24 28.7102 134.737 29.0682C134.234 29.4261 133.914 29.9205 133.778 30.5511L128.012 30.3466C128.183 29.1534 128.622 28.0881 129.329 27.1506C130.045 26.2045 131.025 25.4631 132.27 24.9261C133.522 24.3807 135.027 24.108 136.782 24.108C138.035 24.108 139.19 24.2571 140.247 24.5554C141.304 24.8452 142.224 25.2713 143.008 25.8338C143.792 26.3878 144.397 27.0696 144.824 27.8793C145.258 28.6889 145.475 29.6136 145.475 30.6534V44H139.595V41.2642H139.441C139.092 41.929 138.645 42.4915 138.099 42.9517C137.562 43.4119 136.927 43.7571 136.194 43.9872C135.47 44.2173 134.652 44.3324 133.74 44.3324ZM135.67 40.2415C136.343 40.2415 136.949 40.1051 137.485 39.8324C138.031 39.5597 138.466 39.1847 138.789 38.7074C139.113 38.2216 139.275 37.6591 139.275 37.0199V35.1534C139.096 35.2472 138.879 35.3324 138.623 35.4091C138.376 35.4858 138.103 35.5582 137.805 35.6264C137.507 35.6946 137.2 35.7543 136.885 35.8054C136.569 35.8565 136.267 35.9034 135.977 35.946C135.389 36.0398 134.886 36.1847 134.468 36.3807C134.059 36.5767 133.744 36.8324 133.522 37.1477C133.309 37.4545 133.203 37.821 133.203 38.2472C133.203 38.8949 133.433 39.3892 133.893 39.7301C134.362 40.071 134.954 40.2415 135.67 40.2415ZM155.549 17.8182V44H149.298V17.8182H155.549ZM172.197 35.5241V24.3636H178.436V44H172.479V40.3438H172.274C171.839 41.5455 171.098 42.5 170.05 43.2074C169.01 43.9062 167.753 44.2557 166.278 44.2557C164.94 44.2557 163.764 43.9489 162.75 43.3352C161.736 42.7216 160.947 41.8651 160.385 40.7656C159.822 39.6577 159.537 38.3622 159.528 36.8793V24.3636H165.78V35.652C165.788 36.7173 166.07 37.5568 166.624 38.1705C167.178 38.7841 167.932 39.0909 168.886 39.0909C169.509 39.0909 170.067 38.9545 170.561 38.6818C171.064 38.4006 171.46 37.9957 171.75 37.4673C172.048 36.9304 172.197 36.2827 172.197 35.5241ZM166.854 21.8707L169.436 16.1051H174.972L171.111 21.8707H166.854ZM187.951 44.3324C186.698 44.3324 185.586 44.1236 184.614 43.706C183.651 43.2798 182.888 42.6406 182.326 41.7884C181.772 40.9276 181.495 39.8494 181.495 38.554C181.495 37.4631 181.686 36.5426 182.07 35.7926C182.453 35.0426 182.982 34.4332 183.655 33.9645C184.328 33.4957 185.104 33.142 185.982 32.9034C186.86 32.6562 187.797 32.4901 188.794 32.4048C189.911 32.3026 190.81 32.196 191.492 32.0852C192.174 31.9659 192.668 31.7997 192.975 31.5866C193.29 31.3651 193.448 31.054 193.448 30.6534V30.5895C193.448 29.9332 193.222 29.4261 192.77 29.0682C192.319 28.7102 191.709 28.5312 190.942 28.5312C190.115 28.5312 189.451 28.7102 188.948 29.0682C188.445 29.4261 188.125 29.9205 187.989 30.5511L182.223 30.3466C182.394 29.1534 182.833 28.0881 183.54 27.1506C184.256 26.2045 185.236 25.4631 186.48 24.9261C187.733 24.3807 189.238 24.108 190.993 24.108C192.246 24.108 193.401 24.2571 194.458 24.5554C195.515 24.8452 196.435 25.2713 197.219 25.8338C198.003 26.3878 198.608 27.0696 199.034 27.8793C199.469 28.6889 199.686 29.6136 199.686 30.6534V44H193.806V41.2642H193.652C193.303 41.929 192.855 42.4915 192.31 42.9517C191.773 43.4119 191.138 43.7571 190.405 43.9872C189.681 44.2173 188.863 44.3324 187.951 44.3324ZM189.881 40.2415C190.554 40.2415 191.159 40.1051 191.696 39.8324C192.242 39.5597 192.676 39.1847 193 38.7074C193.324 38.2216 193.486 37.6591 193.486 37.0199V35.1534C193.307 35.2472 193.09 35.3324 192.834 35.4091C192.587 35.4858 192.314 35.5582 192.016 35.6264C191.718 35.6946 191.411 35.7543 191.096 35.8054C190.78 35.8565 190.478 35.9034 190.188 35.946C189.6 36.0398 189.097 36.1847 188.679 36.3807C188.27 36.5767 187.955 36.8324 187.733 37.1477C187.52 37.4545 187.414 37.821 187.414 38.2472C187.414 38.8949 187.644 39.3892 188.104 39.7301C188.573 40.071 189.165 40.2415 189.881 40.2415Z" fill="white"/>
<path d="M43.5997 7.42114V10.6831H41V0.562988H45.6389C46.8275 0.562988 47.7622 0.831092 48.4414 1.3673C49.1206 1.90351 49.4619 2.73761 49.4619 3.8696C49.4619 5.01317 49.1223 5.8903 48.4414 6.50098C47.7622 7.11332 46.8275 7.41948 45.6389 7.41948H43.5997V7.42114ZM43.5997 5.43353H45.3224C45.5549 5.43353 45.7527 5.40044 45.9192 5.33424C46.0857 5.26804 46.2242 5.17205 46.3346 5.04627C46.4451 4.92049 46.5291 4.7732 46.5835 4.60605C46.6379 4.4389 46.666 4.2552 46.666 4.05164C46.666 3.8183 46.6379 3.61142 46.5835 3.42938C46.5275 3.24733 46.4451 3.09011 46.3346 2.95937C46.2242 2.82863 46.0857 2.72933 45.9192 2.66313C45.7527 2.59693 45.5532 2.56384 45.3224 2.56384H43.5997V5.43353Z" fill="white"/>
<path d="M50.6719 10.6802V3.82371C50.8235 3.69297 51.0791 3.54568 51.4417 3.3835C51.8044 3.22131 52.2198 3.07733 52.688 2.95155C53.1562 2.82577 53.6227 2.76123 54.0859 2.76123C54.6003 2.76123 55.0025 2.79929 55.2943 2.87542C55.5861 2.95155 55.8087 3.04423 55.9587 3.15676V4.90109C55.7872 4.86137 55.5713 4.82497 55.3091 4.79518C55.047 4.76539 54.7734 4.74718 54.4849 4.74222C54.198 4.73725 53.9277 4.74056 53.6771 4.75049C53.4249 4.76042 53.2188 4.77531 53.0573 4.79683V10.6835H50.6719V10.6802Z" fill="white"/>
<path d="M60.1159 10.9081C59.3394 10.9081 58.6553 10.7492 58.0602 10.4298C57.4651 10.1121 57.0051 9.65696 56.6771 9.06449C56.349 8.47367 56.1858 7.77196 56.1858 6.96269C56.1858 5.61721 56.5188 4.57624 57.1832 3.83813C57.8475 3.10002 58.8053 2.73096 60.0549 2.73096C60.9006 2.73096 61.5864 2.913 62.1106 3.27709C62.6348 3.64119 63.0189 4.17739 63.2662 4.88572C63.5135 5.59404 63.6305 6.45793 63.6206 7.47904H57.8178L57.5458 5.99288H61.6259L61.3094 6.75085C61.2995 5.93165 61.1907 5.35572 60.9847 5.02142C60.7786 4.68712 60.4324 4.52162 59.9494 4.52162C59.6873 4.52162 59.4499 4.59279 59.2389 4.73346C59.0278 4.87578 58.8581 5.10582 58.7328 5.42358C58.6075 5.74298 58.5432 6.16996 58.5432 6.70617C58.5432 7.42442 58.7146 7.97552 59.0575 8.35947C59.4004 8.74342 59.9494 8.9354 60.7044 8.9354C60.9863 8.9354 61.2632 8.90064 61.5353 8.82948C61.8073 8.75832 62.0611 8.68054 62.2985 8.59448C62.5359 8.50842 62.7337 8.4356 62.8953 8.37437V10.4067C62.5425 10.5374 62.1419 10.6549 61.6935 10.7559C61.2468 10.8568 60.7209 10.9081 60.1159 10.9081Z" fill="white"/>
<path d="M67.7322 10.9086C67.2491 10.9086 66.8024 10.8656 66.3952 10.7795C65.9864 10.6935 65.627 10.5495 65.3154 10.3476C65.0039 10.1457 64.7615 9.87259 64.5901 9.52836C64.4186 9.18413 64.3329 8.76046 64.3329 8.25404C64.3329 7.789 64.4285 7.38188 64.6198 7.03268C64.811 6.68349 65.1077 6.41042 65.5116 6.21348C65.9139 6.01654 66.4282 5.91724 67.053 5.91724C67.386 5.91724 67.7124 5.95531 68.0355 6.03143C68.3586 6.10756 68.6504 6.2052 68.9125 6.32767C69.1746 6.44848 69.3758 6.58088 69.5175 6.72155L69.5934 7.82872C69.4021 7.71784 69.173 7.62681 68.9059 7.55565C68.6389 7.48449 68.3537 7.44973 68.052 7.44973C67.5789 7.44973 67.231 7.52089 67.0101 7.66157C66.7876 7.80389 66.6771 8.02069 66.6771 8.31362C66.6771 8.49567 66.7299 8.65786 66.8354 8.79853C66.9409 8.94085 67.0794 9.04843 67.2508 9.12456C67.4223 9.20068 67.6036 9.23874 67.7948 9.23874C68.2877 9.23874 68.6339 9.20565 68.8301 9.13945C69.0263 9.07325 69.1252 8.9392 69.1252 8.73729V5.99171C69.1252 5.54653 68.9785 5.22381 68.6867 5.02025C68.3949 4.81835 67.9811 4.7174 67.447 4.7174C66.9936 4.7174 66.5403 4.79849 66.0869 4.96067C65.6336 5.12286 65.2759 5.31483 65.0138 5.5366V3.42818C65.266 3.26599 65.6682 3.11539 66.2221 2.97307C66.776 2.83239 67.4058 2.76123 68.1113 2.76123C68.3322 2.76123 68.5894 2.78109 68.8812 2.82246C69.173 2.86218 69.4697 2.93335 69.773 3.0343C70.0747 3.13525 70.355 3.28751 70.6121 3.48941C70.8693 3.69132 71.0754 3.9528 71.232 4.27055C71.3886 4.58831 71.4661 4.99046 71.4661 5.47702L71.4512 9.08815C71.4512 9.51347 71.3078 9.85936 71.021 10.1275C70.7341 10.3956 70.3138 10.5925 69.7599 10.7183C69.2027 10.8457 68.5268 10.9086 67.7322 10.9086Z" fill="white"/>
<path d="M76.6771 10.9102C75.9616 10.9102 75.3303 10.7993 74.7813 10.5759C74.2323 10.3541 73.8021 10.0099 73.4889 9.54485C73.1756 9.07981 73.0207 8.4774 73.0207 7.73929V2.99121H75.4077V7.55724C75.4077 8.01236 75.5083 8.35328 75.7094 8.58166C75.9105 8.81005 76.2386 8.92258 76.6919 8.92258C77.1453 8.92258 77.4717 8.80839 77.6745 8.58166C77.8756 8.35328 77.9761 8.01236 77.9761 7.55724V2.99121H80.1967V7.73929C80.1967 8.84149 79.8818 9.6458 79.2521 10.1506C78.624 10.657 77.7651 10.9102 76.6771 10.9102Z" fill="white"/>
<path d="M84.3376 11C83.421 11 82.7385 10.7882 82.2901 10.3629C81.8418 9.93753 81.6175 9.33181 81.6175 8.5424V4.81046H81.6126V2.99001H81.6175V2.33961L84.1101 0.896484V2.99001H85.7718V4.81046H84.1101V8.25443C84.1101 8.50764 84.1645 8.69134 84.2766 8.80885C84.3871 8.92469 84.5684 8.98262 84.8206 8.98262C84.9723 8.98262 85.1355 8.95283 85.3119 8.89159C85.4883 8.83036 85.6416 8.75092 85.7735 8.64832V10.6806C85.541 10.8014 85.302 10.8858 85.0564 10.9305C84.8091 10.9768 84.57 11 84.3376 11Z" fill="white"/>
<path d="M87.0578 10.6811V1.44312L89.4597 0V4.58093L88.4178 4.03479C88.82 3.6707 89.3047 3.3695 89.8685 3.13284C90.4323 2.89452 91.0126 2.77702 91.6061 2.77702C92.1501 2.77702 92.6331 2.86308 93.0567 3.03519C93.4804 3.20731 93.8118 3.49858 94.0541 3.90736C94.2964 4.31779 94.4168 4.87551 94.4168 5.58383V10.6811H92.0445V6.11508C92.0445 5.63017 91.9242 5.27766 91.6819 5.06086C91.4395 4.84406 91.0868 4.73484 90.6235 4.73484C90.4026 4.73484 90.1784 4.76794 89.9509 4.83413C89.7234 4.90033 89.5602 4.97812 89.4597 5.06914L89.4152 10.6828H87.0578V10.6811Z" fill="white"/>
<path d="M18.8426 44.2753C19.4805 44.3873 20.0065 44.109 20.0065 43.651V37.4447V31.0519C20.0065 30.3665 19.9081 29.7048 19.7215 29.0702C18.4354 24.6828 13.3625 22.2193 8.23538 23.1219C3.3593 23.9804 0 27.7028 0 31.5677V36.7831V40.3833C0 40.7022 0.261272 41.0076 0.587022 41.0653L18.8426 44.2753Z" fill="url(#paint0_linear_47_114)"/>
<path d="M28.1028 14.0248C28.7407 13.9128 29.2667 14.191 29.2667 14.6491V20.8553V27.2482C29.2667 27.9336 29.1683 28.5953 28.9816 29.2298C27.6956 33.6173 22.6227 36.0807 17.4956 35.1781C12.6195 34.3197 9.26018 30.5973 9.26018 26.7324V21.517V17.9168C9.26018 17.5978 9.52147 17.2924 9.84722 17.2348L28.1028 14.0248Z" fill="url(#paint1_linear_47_114)"/>
<path opacity="0.3" d="M19.7688 29.0199C18.5676 24.9277 14.0716 22.5083 9.31088 22.9359V26.6854C9.31088 30.5503 12.6702 34.276 17.5463 35.1311C18.3912 35.2804 19.2327 35.3347 20.0538 35.3076V31.0016C20.0538 30.3161 19.9554 29.6545 19.7688 29.0199Z" fill="url(#paint2_linear_47_114)"/>
<defs>
<linearGradient id="paint0_linear_47_114" x1="17.4998" y1="46.3063" x2="1.97702" y2="22.3859" gradientUnits="userSpaceOnUse">
<stop offset="0.1739" stop-color="#41FF48"/>
<stop offset="0.8046" stop-color="#39A966"/>
</linearGradient>
<linearGradient id="paint1_linear_47_114" x1="9.73197" y1="37.7505" x2="29.5808" y2="8.23173" gradientUnits="userSpaceOnUse">
<stop offset="0.1739" stop-color="#2563EB"/>
<stop offset="0.8046" stop-color="#60A5FA"/>
</linearGradient>
<linearGradient id="paint2_linear_47_114" x1="9.18248" y1="37.2977" x2="29.0313" y2="7.77894" gradientUnits="userSpaceOnUse">
<stop offset="0.1739" stop-color="#4840E8"/>
<stop offset="0.8046" stop-color="#4092CC"/>
</linearGradient>
</defs>
</svg>
